# xmcd
#
# Track frame offsets: 
#        150
#        13369
#        29597
#        51770
#        69295
#        86028
#        98779
#        116335
#        130236
#        152659
#
# Disc length: 2216 seconds
#
# Revision: 0
# Processed by: cddbd v1.5.2PL0 Copyright (c) Steve Scherf et al.
# Submitted via: ExactAudioCopy v0.95b4
#
DISCID=7f08a60a
DTITLE=Various Artist - Breakin' For The Trucker
DYEAR=2007
DGENRE=Country
TTITLE0=Breaker Breaker
TTITLE1=The Devil Went Down To Georgia
TTITLE2=Heard It In A Love Song
TTITLE3=Nothin' But The Taillights
TTITLE4=I'm No Angel
TTITLE5=I Try To Think About Elvis
TTITLE6=Just Another Day In Paradise
TTITLE7=Third Rock From The Sun
TTITLE8=Flirtin' With Disaster
TTITLE9=Ten Rounds With Jose Cuervo
EXTD=
EXTT0=
EXTT1=
EXTT2=
EXTT3=
EXTT4=
EXTT5=
EXTT6=
EXTT7=
EXTT8=
EXTT9=
PLAYORDER=
